<?xml version="1.0" encoding="UTF-8" standalone="no"?>
<!DOCTYPE svg PUBLIC "-//W3C//DTD SVG 1.1//EN" "http://www.w3.org/Graphics/SVG/1.1/DTD/svg11.dtd">
<svg width="100%" height="100%" viewBox="0 0 1081 318" version="1.1" xmlns="http://www.w3.org/2000/svg" xmlns:xlink="http://www.w3.org/1999/xlink" xml:space="preserve" xmlns:serif="http://www.serif.com/" style="fill-rule:evenodd;clip-rule:evenodd;stroke-linejoin:round;stroke-miterlimit:2;">
    <g transform="matrix(1,0,0,1,0,1)">
        <path d="M374.28,83.22L411.46,83.22L384.31,200.66L398.9,200.66L398.59,215.25L363.86,215.25L390.84,97.82L373.87,97.82L374.28,83.22Z" style="fill:rgb(197,255,127);fill-rule:nonzero;"/>
    </g>
    <g transform="matrix(1,0,0,1,0,1)">
        <path d="M399.34,177.15C399.34,172.29 399.95,167.62 401.16,163.15C402.38,158.69 404.1,154.5 406.34,150.6C408.58,146.69 411.26,143.16 414.4,139.99C417.54,136.82 421,134.11 424.79,131.84C428.58,129.58 432.64,127.82 436.97,126.58C441.3,125.34 445.78,124.71 450.42,124.71C456.25,124.71 461.65,125.74 466.63,127.81C471.61,129.87 475.91,132.7 479.53,136.29C483.15,139.88 485.99,144.09 488.06,148.93C490.12,153.76 491.16,158.95 491.16,164.5C491.16,169.42 490.54,174.14 489.3,178.67C488.05,183.2 486.31,187.41 484.08,191.31C481.84,195.21 479.17,198.78 476.06,202C472.95,205.22 469.49,207.97 465.67,210.23C461.85,212.49 457.76,214.25 453.41,215.49C449.05,216.73 444.53,217.36 439.84,217.36C433.95,217.36 428.55,216.33 423.63,214.26C418.71,212.2 414.44,209.36 410.82,205.73C407.2,202.11 404.38,197.85 402.38,192.96C400.37,188.07 399.37,182.79 399.37,177.14M417.08,175.97C417.08,179.93 417.66,183.54 418.82,186.79C419.98,190.04 421.61,192.81 423.7,195.11C425.79,197.4 428.31,199.18 431.25,200.45C434.19,201.72 437.41,202.36 440.92,202.36C445.05,202.36 449.08,201.46 453.01,199.64C456.94,197.83 460.41,195.32 463.41,192.09C466.41,188.87 468.83,184.99 470.67,180.47C472.51,175.95 473.43,170.97 473.43,165.54C473.43,161.58 472.82,158.02 471.61,154.85C470.39,151.68 468.71,148.97 466.56,146.7C464.41,144.44 461.88,142.7 458.97,141.48C456.05,140.27 452.87,139.66 449.42,139.66C445.23,139.66 441.2,140.55 437.33,142.33C433.46,144.11 430.02,146.6 427.02,149.8C424.02,153 421.62,156.83 419.81,161.3C418,165.77 417.09,170.66 417.09,175.98" style="fill:rgb(197,255,127);fill-rule:nonzero;"/>
    </g>
    <g transform="matrix(1,0,0,1,0,1)">
        <path d="M554.93,147.29C553.43,145.59 551.72,144.18 549.8,143.05C547.88,141.92 545.78,141.07 543.52,140.5C541.26,139.93 538.91,139.65 536.48,139.65C533.37,139.65 530.04,140.46 526.51,142.07C522.98,143.68 519.69,146.05 516.67,149.15C513.64,152.26 511.14,156.08 509.16,160.61C507.18,165.13 506.19,170.31 506.19,176.14C506.19,180.38 506.81,184.13 508.05,187.38C509.3,190.64 510.97,193.36 513.06,195.57C515.15,197.78 517.58,199.43 520.36,200.54C523.13,201.64 526.07,202.19 529.18,202.19C531.44,202.19 533.56,202.01 535.54,201.64C537.52,201.27 539.4,200.65 541.18,199.77C542.96,198.89 544.7,197.75 546.4,196.33C548.1,194.92 549.77,193.16 551.41,191.07L563.71,200.32C561.5,203.43 559.01,206.08 556.24,208.25C553.47,210.43 550.56,212.2 547.5,213.55C544.44,214.91 541.29,215.88 538.04,216.48C534.79,217.07 531.58,217.37 528.41,217.37C522.64,217.37 517.31,216.34 512.41,214.27C507.52,212.2 503.3,209.36 499.77,205.74C496.23,202.12 493.46,197.87 491.45,192.97C489.44,188.08 488.44,182.8 488.44,177.15C488.44,169.45 489.88,162.4 492.77,155.98C495.65,149.56 499.44,144.03 504.14,139.39C508.84,134.75 514.14,131.15 520.05,128.57C525.96,125.99 531.94,124.71 537.99,124.71C540.82,124.71 543.65,124.98 546.48,125.52C549.31,126.06 552.02,126.91 554.63,128.07C557.23,129.23 559.66,130.69 561.92,132.44C564.18,134.2 566.22,136.26 568.03,138.63L588.16,138.63L585.78,153.23L558.53,153.23C557.62,150.97 556.42,148.99 554.92,147.29" style="fill:rgb(197,255,127);fill-rule:nonzero;"/>
    </g>
    <g transform="matrix(1,0,0,1,0,1)">
        <path d="M625.84,209.31C622.05,211.86 618.25,213.74 614.43,214.95C610.61,216.16 606.66,216.77 602.59,216.77C597.78,216.77 593.29,215.84 589.1,213.97C584.91,212.1 581.28,209.56 578.2,206.33C575.12,203.1 572.68,199.3 570.9,194.92C569.12,190.54 568.23,185.83 568.23,180.79C568.23,172.59 569.67,165.06 572.56,158.22C575.44,151.38 579.36,145.49 584.31,140.57C589.26,135.65 595.03,131.83 601.62,129.11C608.21,126.4 615.21,125.04 622.62,125.04C626.86,125.04 630.85,125.68 634.58,126.95C638.31,128.23 641.37,129.88 643.74,131.91L644.84,127.33L661.9,127.33L644.93,200.64L669.37,200.64L669.37,215.23L624.49,215.23L625.85,209.29L625.84,209.31ZM606.58,202.18C608.67,202.18 610.81,201.92 612.99,201.42C615.17,200.91 617.24,200.26 619.23,199.47C621.21,198.68 623.07,197.76 624.83,196.71C626.59,195.66 628.14,194.58 629.5,193.44L640.44,146.43C638.97,144.56 636.68,142.97 633.57,141.64C630.46,140.31 626.38,139.64 621.35,139.64C616.99,139.64 612.7,140.53 608.45,142.31C604.21,144.09 600.42,146.66 597.08,150.03C593.74,153.4 591.03,157.53 588.94,162.42C586.85,167.31 585.8,172.87 585.8,179.09C585.8,182.71 586.31,185.95 587.33,188.81C588.35,191.67 589.76,194.09 591.57,196.07C593.38,198.05 595.57,199.56 598.15,200.61C600.72,201.66 603.54,202.18 606.59,202.18" style="fill:rgb(197,255,127);fill-rule:nonzero;"/>
    </g>
    <g transform="matrix(1,0,0,1,0,1)">
        <path d="M750.58,177.15C750.58,172.29 751.19,167.62 752.4,163.15C753.61,158.69 755.34,154.5 757.57,150.6C759.81,146.69 762.49,143.16 765.63,139.99C768.77,136.82 772.23,134.11 776.02,131.84C779.81,129.58 783.87,127.82 788.2,126.58C792.53,125.34 797.01,124.71 801.65,124.71C807.48,124.71 812.88,125.74 817.86,127.81C822.84,129.87 827.14,132.7 830.76,136.29C834.38,139.88 837.22,144.09 839.29,148.93C841.35,153.76 842.39,158.95 842.39,164.5C842.39,169.42 841.77,174.14 840.52,178.67C839.28,183.2 837.54,187.41 835.3,191.31C833.06,195.21 830.39,198.78 827.28,202C824.17,205.22 820.71,207.97 816.89,210.23C813.07,212.49 808.98,214.25 804.63,215.49C800.27,216.73 795.75,217.36 791.06,217.36C785.17,217.36 779.77,216.33 774.85,214.26C769.93,212.2 765.66,209.36 762.04,205.73C758.42,202.11 755.6,197.85 753.6,192.96C751.59,188.07 750.59,182.79 750.59,177.14M768.31,175.97C768.31,179.93 768.89,183.54 770.05,186.79C771.21,190.04 772.84,192.81 774.93,195.11C777.02,197.4 779.54,199.18 782.48,200.45C785.42,201.72 788.65,202.36 792.15,202.36C796.28,202.36 800.31,201.46 804.24,199.64C808.17,197.83 811.64,195.32 814.64,192.09C817.64,188.87 820.06,184.99 821.9,180.47C823.74,175.95 824.66,170.97 824.66,165.54C824.66,161.58 824.05,158.02 822.84,154.85C821.62,151.68 819.94,148.97 817.79,146.7C815.64,144.44 813.11,142.7 810.2,141.48C807.28,140.27 804.1,139.66 800.66,139.66C796.47,139.66 792.44,140.55 788.57,142.33C784.7,144.11 781.26,146.6 778.26,149.8C775.26,153 772.86,156.83 771.05,161.3C769.24,165.77 768.33,170.66 768.33,175.98" style="fill:rgb(197,255,127);fill-rule:nonzero;"/>
    </g>
    <g transform="matrix(1,0,0,1,0,1)">
        <path d="M837.99,177.15C837.99,172.29 838.6,167.62 839.81,163.15C841.02,158.69 842.75,154.5 844.98,150.6C847.22,146.69 849.9,143.16 853.04,139.99C856.18,136.82 859.64,134.11 863.43,131.84C867.22,129.58 871.28,127.82 875.61,126.58C879.94,125.34 884.42,124.71 889.06,124.71C894.89,124.71 900.29,125.74 905.27,127.81C910.25,129.87 914.55,132.7 918.17,136.29C921.79,139.88 924.63,144.09 926.7,148.93C928.76,153.76 929.8,158.95 929.8,164.5C929.8,169.42 929.18,174.14 927.93,178.67C926.69,183.2 924.95,187.41 922.71,191.31C920.47,195.21 917.8,198.78 914.69,202C911.58,205.22 908.12,207.97 904.3,210.23C900.48,212.49 896.39,214.25 892.04,215.49C887.68,216.73 883.16,217.36 878.47,217.36C872.58,217.36 867.18,216.33 862.26,214.26C857.34,212.2 853.07,209.36 849.45,205.73C845.83,202.11 843.01,197.85 841.01,192.96C839,188.07 838,182.79 838,177.14M855.72,175.97C855.72,179.93 856.3,183.54 857.46,186.79C858.62,190.04 860.25,192.81 862.34,195.11C864.43,197.4 866.95,199.18 869.89,200.45C872.83,201.72 876.05,202.36 879.56,202.36C883.69,202.36 887.72,201.46 891.65,199.64C895.58,197.83 899.05,195.32 902.05,192.09C905.05,188.87 907.47,184.99 909.31,180.47C911.15,175.95 912.07,170.97 912.07,165.54C912.07,161.58 911.46,158.02 910.25,154.85C909.03,151.68 907.35,148.97 905.2,146.7C903.05,144.44 900.52,142.7 897.61,141.48C894.69,140.27 891.51,139.66 888.06,139.66C883.87,139.66 879.84,140.55 875.97,142.33C872.1,144.11 868.66,146.6 865.66,149.8C862.66,153 860.26,156.83 858.45,161.3C856.64,165.77 855.73,170.66 855.73,175.98" style="fill:rgb(197,255,127);fill-rule:nonzero;"/>
    </g>
    <g transform="matrix(1,0,0,1,0,1)">
        <path d="M901.87,127.35L968.43,127.35L967.24,133.12C971.14,130.41 975.05,128.38 978.95,127.05C982.85,125.72 986.93,125.06 991.17,125.06C995.98,125.06 1000.49,125.99 1004.7,127.86C1008.92,129.73 1012.56,132.27 1015.65,135.5C1018.73,138.72 1021.17,142.53 1022.94,146.91C1024.72,151.29 1025.61,156 1025.61,161.04C1025.61,169.24 1024.17,176.77 1021.28,183.61C1018.4,190.45 1014.48,196.34 1009.53,201.26C1004.58,206.18 998.81,210 992.22,212.71C985.63,215.43 978.63,216.78 971.22,216.78C966.92,216.78 962.89,216.14 959.13,214.87C955.37,213.59 952.27,211.94 949.84,209.91L942.8,240.63L957.31,240.63L957.17,255.22L922.01,255.22L948.39,141.94L898.39,141.94L901.87,127.35ZM987.17,139.65C983.21,139.65 979.21,140.46 975.17,142.07C971.13,143.68 967.4,145.87 964.01,148.65L953.23,195.23C954.7,197.1 956.97,198.72 960.06,200.11C963.14,201.5 967.26,202.19 972.41,202.19C976.76,202.19 981.07,201.3 985.31,199.52C989.55,197.74 993.36,195.17 996.72,191.8C1000.09,188.43 1002.82,184.32 1004.91,179.45C1007,174.59 1008.05,169.04 1008.05,162.82C1008.05,159.2 1007.54,155.96 1006.52,153.11C1005.5,150.25 1004.07,147.83 1002.24,145.85C1000.4,143.87 998.21,142.34 995.66,141.27C993.11,140.2 990.29,139.66 987.17,139.66" style="fill:rgb(197,255,127);fill-rule:nonzero;"/>
    </g>
    <g transform="matrix(1,0,0,1,0,1)">
        <path d="M56.57,169.93C59.99,188.48 68.4,204.51 81.65,217.93C90.75,227.14 101.37,234.11 113.47,238.81C124.28,243.01 135.45,245.13 146.05,244.91C160.71,245 173.67,242 185.97,236.12C187.32,235.48 188.45,235.45 189.85,236.12C201.5,241.67 213.76,244.7 226.7,244.91C234.05,245.03 241.36,244.6 248.54,243C259.39,240.59 269.53,236.45 278.85,230.35C294.78,219.93 306.47,205.94 313.78,188.39C319.74,174.09 322.05,159.12 320.09,143.76C315.73,109.64 297.8,85.1 266.83,70.21C255.89,64.95 244.2,62.49 232.04,62.11C217.05,61.64 202.85,64.72 189.33,71.13C188.29,71.62 187.46,71.61 186.43,71.12C174.59,65.51 162.16,62.44 149.02,62.11C134.7,61.74 121.08,64.56 108.1,70.55C99.28,74.62 91.36,80.02 84.26,86.66C71.31,98.75 62.59,113.38 58.06,130.47C54.61,143.5 54.13,156.71 56.57,169.94M75.35,135.38C78.66,122.56 84.92,111.41 94.2,102.02C105.07,91.01 118.14,84.03 133.41,81.2C142.97,79.42 152.5,79.57 161.97,81.58C172.1,83.73 181.38,87.89 189.77,93.97C201.89,102.76 210.57,114.18 215.76,128.21C218.5,135.59 219.87,143.26 220.2,151.13C220.25,152.3 220.2,152.87 219.8,153.16C225.47,156.34 233.05,156.45 238.45,152.88C238.21,152.47 238.16,151.76 238.09,150.51C238.06,150.07 238.02,149.63 238,149.18C237.42,135.56 233.94,122.71 227.58,110.66C222.93,101.85 217,94 209.7,87.2C208.6,86.17 207.52,85.13 206.22,83.89C207.04,83.52 207.56,83.16 208.14,83.04C212.32,82.16 216.47,81.02 220.7,80.53C238.7,78.43 255.34,82.46 270.3,92.64C286.82,103.88 297.18,119.47 301.28,139.01C303.63,150.18 303.21,161.37 300.24,172.46C296.92,184.85 290.78,195.63 281.86,204.78C271.36,215.56 258.71,222.57 243.93,225.59C229.89,228.46 216.1,227.41 202.76,222.2C186.53,215.86 174,205.05 165.28,189.95C159.19,179.41 156.01,168.01 155.64,155.83C150.2,150.93 143.59,152.16 137.68,155.63C137.68,155.95 137.7,156.27 137.71,156.6C138.02,166.91 140.05,176.89 143.78,186.5C149.14,200.31 157.42,212.12 168.46,222C168.79,222.3 169,222.74 169.27,223.12C168.84,223.4 168.44,223.8 167.96,223.93C165.78,224.52 163.6,225.13 161.39,225.58C148.79,228.14 136.35,227.53 124.11,223.58C111.78,219.6 101.23,212.79 92.46,203.25C82.87,192.81 76.76,180.59 74.21,166.67C72.29,156.2 72.66,145.75 75.34,135.39" style="fill:rgb(197,255,127);fill-rule:nonzero;"/>
    </g>
    <g transform="matrix(1,0,0,1,0,1)">
        <path d="M168.98,178.28C159.37,168.67 149.75,159.05 140.14,149.44L155.69,149.44C145.74,159.39 135.8,169.33 125.85,179.28C115.83,189.3 100.28,173.75 110.3,163.73C120.25,153.78 130.19,143.84 140.14,133.89C144.34,129.69 151.48,129.68 155.69,133.89C165.3,143.51 174.91,153.12 184.53,162.73C194.55,172.75 179,188.3 168.98,178.28" style="fill:rgb(197,255,127);fill-rule:nonzero;"/>
    </g>
    <g transform="matrix(1,0,0,1,0,1)">
        <path d="M208.39,134.88L237.23,163.72L221.68,163.72L251.52,133.88C261.54,123.86 277.09,139.41 267.07,149.43C257.12,159.38 247.18,169.32 237.23,179.27C233.03,183.47 225.89,183.48 221.68,179.27C212.07,169.65 202.46,160.04 192.84,150.43C182.82,140.41 198.37,124.86 208.39,134.88" style="fill:rgb(197,255,127);fill-rule:nonzero;"/>
    </g>
    <g transform="matrix(1,0,0,1,0,1)">
        <path d="M366.99,90.52C366.99,86.49 370.26,83.22 374.29,83.22C378.32,83.22 381.59,86.49 381.59,90.52C381.59,94.55 378.32,97.82 374.29,97.82C370.26,97.82 366.99,94.55 366.99,90.52" style="fill:rgb(197,255,127);fill-rule:nonzero;"/>
    </g>
    <g transform="matrix(1,0,0,1,0,1)">
        <path d="M549.94,195.69C549.94,191.47 553.36,188.06 557.57,188.06C561.78,188.06 565.2,191.48 565.2,195.69C565.2,199.9 561.78,203.32 557.57,203.32C553.36,203.32 549.94,199.9 549.94,195.69" style="fill:rgb(197,255,127);fill-rule:nonzero;"/>
    </g>
    <g transform="matrix(1,0,0,1,0,1)">
        <path d="M391.29,207.96C391.29,203.93 394.56,200.66 398.59,200.66C402.62,200.66 405.89,203.93 405.89,207.96C405.89,211.99 402.62,215.26 398.59,215.26C394.56,215.26 391.29,211.99 391.29,207.96" style="fill:rgb(197,255,127);fill-rule:nonzero;"/>
    </g>
    <g transform="matrix(1,0,0,1,0,1)">
        <path d="M950.11,247.92C950.11,243.89 953.38,240.62 957.41,240.62C961.44,240.62 964.71,243.89 964.71,247.92C964.71,251.95 961.44,255.22 957.41,255.22C953.38,255.22 950.11,251.95 950.11,247.92" style="fill:rgb(197,255,127);fill-rule:nonzero;"/>
    </g>
    <g transform="matrix(1,0,0,1,0,1)">
        <path d="M674.7,83.22L711.94,83.22L684.79,200.66L699.39,200.66L698.99,215.25L664.34,215.25L691.32,97.82L674.36,97.82L674.7,83.22Z" style="fill:rgb(197,255,127);fill-rule:nonzero;"/>
    </g>
    <g transform="matrix(1,0,0,1,0,1)">
        <path d="M691.69,207.96C691.69,203.93 694.96,200.66 698.99,200.66C703.02,200.66 706.29,203.93 706.29,207.96C706.29,211.99 703.02,215.26 698.99,215.26C694.96,215.26 691.69,211.99 691.69,207.96" style="fill:rgb(197,255,127);fill-rule:nonzero;"/>
    </g>
    <g transform="matrix(1,0,0,1,0,1)">
        <path d="M666.61,90.52C666.61,86.49 669.88,83.22 673.91,83.22C677.94,83.22 681.21,86.49 681.21,90.52C681.21,94.55 677.94,97.82 673.91,97.82C669.88,97.82 666.61,94.55 666.61,90.52" style="fill:rgb(197,255,127);fill-rule:nonzero;"/>
    </g>
    <g transform="matrix(1,0,0,1,0,1)">
        <path d="M724.33,83.22L761.58,83.22L734.42,200.66L749.02,200.66L748.62,215.25L713.97,215.25L740.95,97.82L723.99,97.82L724.33,83.22Z" style="fill:rgb(197,255,127);fill-rule:nonzero;"/>
    </g>
    <g transform="matrix(1,0,0,1,0,1)">
        <path d="M741.32,207.96C741.32,203.93 744.59,200.66 748.62,200.66C752.65,200.66 755.92,203.93 755.92,207.96C755.92,211.99 752.65,215.26 748.62,215.26C744.59,215.26 741.32,211.99 741.32,207.96" style="fill:rgb(197,255,127);fill-rule:nonzero;"/>
    </g>
    <g transform="matrix(1,0,0,1,0,1)">
        <path d="M716.24,90.52C716.24,86.49 719.51,83.22 723.54,83.22C727.57,83.22 730.84,86.49 730.84,90.52C730.84,94.55 727.57,97.82 723.54,97.82C719.51,97.82 716.24,94.55 716.24,90.52" style="fill:rgb(197,255,127);fill-rule:nonzero;"/>
    </g>
    <g transform="matrix(1,0,0,1,58.6424,-41.8178)">
        <g transform="matrix(58,0,0,58,508.051,321.159)">
            <path d="M0.056,-0.084L0.122,-0.084L0.254,-0.656L0.181,-0.656L0.201,-0.74L0.425,-0.74L0.521,-0.105L0.904,-0.74L1.135,-0.74L1.115,-0.656L1.048,-0.656L0.916,-0.084L0.994,-0.084L0.975,-0L0.735,-0L0.754,-0.084L0.818,-0.084L0.948,-0.647L0.558,-0L0.445,-0L0.346,-0.646L0.216,-0.084L0.296,-0.084L0.277,-0L0.037,-0L0.056,-0.084Z" style="fill:rgb(197,255,127);fill-rule:nonzero;"/>
        </g>
        <g transform="matrix(58,0,0,58,572.904,321.159)">
            <path d="M0.155,-0.236C0.155,-0.231 0.155,-0.227 0.154,-0.224C0.154,-0.221 0.154,-0.218 0.154,-0.215C0.154,-0.194 0.157,-0.175 0.164,-0.158C0.17,-0.14 0.18,-0.125 0.192,-0.112C0.204,-0.099 0.218,-0.089 0.234,-0.082C0.251,-0.074 0.269,-0.071 0.288,-0.071C0.314,-0.071 0.339,-0.076 0.363,-0.087C0.386,-0.097 0.406,-0.113 0.422,-0.133L0.494,-0.08C0.483,-0.065 0.47,-0.052 0.455,-0.041C0.439,-0.029 0.422,-0.019 0.404,-0.01C0.385,-0.002 0.365,0.004 0.344,0.009C0.323,0.013 0.302,0.015 0.28,0.015C0.249,0.015 0.22,0.01 0.193,-0C0.165,-0.011 0.142,-0.026 0.121,-0.046C0.101,-0.066 0.085,-0.09 0.073,-0.119C0.062,-0.148 0.056,-0.18 0.056,-0.217C0.056,-0.259 0.064,-0.298 0.078,-0.335C0.093,-0.372 0.114,-0.404 0.14,-0.432C0.166,-0.459 0.197,-0.481 0.233,-0.497C0.269,-0.513 0.307,-0.521 0.349,-0.521C0.381,-0.521 0.41,-0.516 0.435,-0.505C0.461,-0.494 0.482,-0.479 0.5,-0.461C0.517,-0.444 0.53,-0.423 0.54,-0.399C0.549,-0.376 0.553,-0.352 0.553,-0.327C0.553,-0.311 0.552,-0.295 0.551,-0.279C0.549,-0.264 0.547,-0.249 0.544,-0.236L0.155,-0.236ZM0.336,-0.438C0.316,-0.438 0.298,-0.435 0.281,-0.429C0.264,-0.423 0.248,-0.414 0.234,-0.403C0.22,-0.392 0.208,-0.379 0.197,-0.364C0.187,-0.349 0.178,-0.333 0.171,-0.315L0.459,-0.315C0.459,-0.335 0.457,-0.353 0.451,-0.368C0.445,-0.384 0.437,-0.397 0.426,-0.407C0.415,-0.417 0.402,-0.425 0.387,-0.43C0.371,-0.435 0.354,-0.438 0.336,-0.438Z" style="fill:rgb(197,255,127);fill-rule:nonzero;"/>
        </g>
        <g transform="matrix(58,0,0,58,606.067,321.159)">
            <path d="M0.468,-0.366L0.369,-0.366L0.383,-0.426C0.351,-0.426 0.324,-0.418 0.302,-0.402C0.28,-0.385 0.262,-0.364 0.248,-0.338L0.189,-0.084L0.273,-0.084L0.254,-0L0.071,-0L0.168,-0.422L0.072,-0.422L0.092,-0.506L0.283,-0.506L0.267,-0.437C0.276,-0.447 0.285,-0.457 0.296,-0.466C0.306,-0.475 0.317,-0.482 0.329,-0.489C0.34,-0.495 0.352,-0.5 0.365,-0.504C0.378,-0.508 0.39,-0.51 0.403,-0.51C0.415,-0.51 0.425,-0.51 0.433,-0.509C0.442,-0.509 0.451,-0.508 0.46,-0.508C0.47,-0.507 0.483,-0.505 0.5,-0.503L0.468,-0.366Z" style="fill:rgb(197,255,127);fill-rule:nonzero;"/>
        </g>
        <g transform="matrix(58,0,0,58,635.889,321.159)">
            <path d="M0.366,-0.365C0.365,-0.378 0.363,-0.389 0.358,-0.399C0.353,-0.409 0.347,-0.417 0.339,-0.424C0.33,-0.43 0.321,-0.435 0.309,-0.439C0.298,-0.442 0.286,-0.444 0.273,-0.444C0.26,-0.444 0.248,-0.442 0.236,-0.439C0.224,-0.436 0.214,-0.431 0.205,-0.425C0.196,-0.419 0.189,-0.412 0.184,-0.403C0.179,-0.394 0.177,-0.384 0.177,-0.373C0.177,-0.36 0.181,-0.349 0.189,-0.341C0.198,-0.332 0.211,-0.324 0.229,-0.317L0.323,-0.283C0.351,-0.273 0.373,-0.257 0.388,-0.235C0.403,-0.213 0.411,-0.186 0.411,-0.155C0.411,-0.127 0.406,-0.102 0.395,-0.081C0.385,-0.06 0.371,-0.042 0.353,-0.028C0.334,-0.014 0.313,-0.003 0.287,0.004C0.262,0.012 0.235,0.015 0.205,0.015C0.186,0.015 0.169,0.014 0.152,0.011C0.136,0.008 0.12,0.003 0.106,-0.003C0.092,-0.009 0.08,-0.016 0.069,-0.025C0.059,-0.034 0.05,-0.044 0.044,-0.056L-0.007,-0.056L0.013,-0.14L0.116,-0.14C0.114,-0.127 0.116,-0.116 0.121,-0.106C0.125,-0.097 0.132,-0.088 0.142,-0.082C0.151,-0.075 0.162,-0.07 0.174,-0.067C0.187,-0.064 0.2,-0.062 0.214,-0.062C0.228,-0.062 0.241,-0.064 0.253,-0.067C0.265,-0.071 0.276,-0.076 0.285,-0.083C0.294,-0.09 0.302,-0.098 0.307,-0.108C0.312,-0.118 0.315,-0.13 0.315,-0.143C0.315,-0.155 0.311,-0.167 0.302,-0.177C0.293,-0.187 0.279,-0.196 0.261,-0.202L0.171,-0.235C0.142,-0.246 0.12,-0.263 0.104,-0.285C0.088,-0.307 0.081,-0.332 0.081,-0.359C0.081,-0.383 0.085,-0.405 0.093,-0.425C0.102,-0.445 0.114,-0.462 0.131,-0.476C0.147,-0.49 0.168,-0.501 0.193,-0.509C0.218,-0.517 0.248,-0.521 0.281,-0.521C0.3,-0.521 0.318,-0.519 0.334,-0.515C0.35,-0.512 0.365,-0.507 0.377,-0.5C0.39,-0.493 0.401,-0.486 0.41,-0.477C0.419,-0.469 0.427,-0.459 0.432,-0.449L0.487,-0.449L0.467,-0.365L0.366,-0.365Z" style="fill:rgb(197,255,127);fill-rule:nonzero;"/>
        </g>
        <g transform="matrix(58,0,0,58,664.549,321.159)">
            <path d="M0.155,-0.236C0.155,-0.231 0.155,-0.227 0.154,-0.224C0.154,-0.221 0.154,-0.218 0.154,-0.215C0.154,-0.194 0.157,-0.175 0.164,-0.158C0.17,-0.14 0.18,-0.125 0.192,-0.112C0.204,-0.099 0.218,-0.089 0.234,-0.082C0.251,-0.074 0.269,-0.071 0.288,-0.071C0.314,-0.071 0.339,-0.076 0.363,-0.087C0.386,-0.097 0.406,-0.113 0.422,-0.133L0.494,-0.08C0.483,-0.065 0.47,-0.052 0.455,-0.041C0.439,-0.029 0.422,-0.019 0.404,-0.01C0.385,-0.002 0.365,0.004 0.344,0.009C0.323,0.013 0.302,0.015 0.28,0.015C0.249,0.015 0.22,0.01 0.193,-0C0.165,-0.011 0.142,-0.026 0.121,-0.046C0.101,-0.066 0.085,-0.09 0.073,-0.119C0.062,-0.148 0.056,-0.18 0.056,-0.217C0.056,-0.259 0.064,-0.298 0.078,-0.335C0.093,-0.372 0.114,-0.404 0.14,-0.432C0.166,-0.459 0.197,-0.481 0.233,-0.497C0.269,-0.513 0.307,-0.521 0.349,-0.521C0.381,-0.521 0.41,-0.516 0.435,-0.505C0.461,-0.494 0.482,-0.479 0.5,-0.461C0.517,-0.444 0.53,-0.423 0.54,-0.399C0.549,-0.376 0.553,-0.352 0.553,-0.327C0.553,-0.311 0.552,-0.295 0.551,-0.279C0.549,-0.264 0.547,-0.249 0.544,-0.236L0.155,-0.236ZM0.336,-0.438C0.316,-0.438 0.298,-0.435 0.281,-0.429C0.264,-0.423 0.248,-0.414 0.234,-0.403C0.22,-0.392 0.208,-0.379 0.197,-0.364C0.187,-0.349 0.178,-0.333 0.171,-0.315L0.459,-0.315C0.459,-0.335 0.457,-0.353 0.451,-0.368C0.445,-0.384 0.437,-0.397 0.426,-0.407C0.415,-0.417 0.402,-0.425 0.387,-0.43C0.371,-0.435 0.354,-0.438 0.336,-0.438Z" style="fill:rgb(197,255,127);fill-rule:nonzero;"/>
        </g>
        <g transform="matrix(58,0,0,58,697.712,321.159)">
            <path d="M0.072,-0.506L0.257,-0.506L0.237,-0.422L0.199,-0.422L0.229,-0.11L0.428,-0.422L0.386,-0.422L0.406,-0.506L0.591,-0.506L0.571,-0.422L0.529,-0.422L0.167,0.146L0.216,0.146L0.195,0.23L-0.005,0.23L0.016,0.146L0.065,0.146L0.156,0.004L0.1,-0.422L0.052,-0.422L0.072,-0.506Z" style="fill:rgb(197,255,127);fill-rule:nonzero;"/>
        </g>
        <g transform="matrix(58,0,0,58,730.705,321.159)">
            <path d="M0.366,-0.365C0.365,-0.378 0.363,-0.389 0.358,-0.399C0.353,-0.409 0.347,-0.417 0.339,-0.424C0.33,-0.43 0.321,-0.435 0.309,-0.439C0.298,-0.442 0.286,-0.444 0.273,-0.444C0.26,-0.444 0.248,-0.442 0.236,-0.439C0.224,-0.436 0.214,-0.431 0.205,-0.425C0.196,-0.419 0.189,-0.412 0.184,-0.403C0.179,-0.394 0.177,-0.384 0.177,-0.373C0.177,-0.36 0.181,-0.349 0.189,-0.341C0.198,-0.332 0.211,-0.324 0.229,-0.317L0.323,-0.283C0.351,-0.273 0.373,-0.257 0.388,-0.235C0.403,-0.213 0.411,-0.186 0.411,-0.155C0.411,-0.127 0.406,-0.102 0.395,-0.081C0.385,-0.06 0.371,-0.042 0.353,-0.028C0.334,-0.014 0.313,-0.003 0.287,0.004C0.262,0.012 0.235,0.015 0.205,0.015C0.186,0.015 0.169,0.014 0.152,0.011C0.136,0.008 0.12,0.003 0.106,-0.003C0.092,-0.009 0.08,-0.016 0.069,-0.025C0.059,-0.034 0.05,-0.044 0.044,-0.056L-0.007,-0.056L0.013,-0.14L0.116,-0.14C0.114,-0.127 0.116,-0.116 0.121,-0.106C0.125,-0.097 0.132,-0.088 0.142,-0.082C0.151,-0.075 0.162,-0.07 0.174,-0.067C0.187,-0.064 0.2,-0.062 0.214,-0.062C0.228,-0.062 0.241,-0.064 0.253,-0.067C0.265,-0.071 0.276,-0.076 0.285,-0.083C0.294,-0.09 0.302,-0.098 0.307,-0.108C0.312,-0.118 0.315,-0.13 0.315,-0.143C0.315,-0.155 0.311,-0.167 0.302,-0.177C0.293,-0.187 0.279,-0.196 0.261,-0.202L0.171,-0.235C0.142,-0.246 0.12,-0.263 0.104,-0.285C0.088,-0.307 0.081,-0.332 0.081,-0.359C0.081,-0.383 0.085,-0.405 0.093,-0.425C0.102,-0.445 0.114,-0.462 0.131,-0.476C0.147,-0.49 0.168,-0.501 0.193,-0.509C0.218,-0.517 0.248,-0.521 0.281,-0.521C0.3,-0.521 0.318,-0.519 0.334,-0.515C0.35,-0.512 0.365,-0.507 0.377,-0.5C0.39,-0.493 0.401,-0.486 0.41,-0.477C0.419,-0.469 0.427,-0.459 0.432,-0.449L0.487,-0.449L0.467,-0.365L0.366,-0.365Z" style="fill:rgb(197,255,127);fill-rule:nonzero;"/>
        </g>
        <g transform="matrix(58,0,0,58,759.365,321.159)">
            <path d="M0.098,-0.506L0.287,-0.506L0.189,-0.084L0.27,-0.084L0.251,-0L0.071,-0L0.168,-0.422L0.078,-0.422L0.098,-0.506ZM0.191,-0.684C0.191,-0.693 0.193,-0.701 0.196,-0.709C0.199,-0.717 0.204,-0.724 0.21,-0.729C0.216,-0.735 0.223,-0.74 0.23,-0.743C0.238,-0.746 0.247,-0.748 0.256,-0.748C0.265,-0.748 0.273,-0.746 0.281,-0.743C0.289,-0.74 0.295,-0.735 0.301,-0.729C0.307,-0.724 0.311,-0.717 0.315,-0.709C0.318,-0.701 0.32,-0.693 0.32,-0.684C0.32,-0.675 0.318,-0.667 0.315,-0.659C0.311,-0.651 0.307,-0.644 0.301,-0.638C0.295,-0.632 0.289,-0.627 0.281,-0.624C0.273,-0.62 0.265,-0.618 0.256,-0.618C0.247,-0.618 0.238,-0.62 0.23,-0.624C0.223,-0.627 0.216,-0.632 0.21,-0.638C0.204,-0.644 0.199,-0.651 0.196,-0.659C0.193,-0.667 0.191,-0.675 0.191,-0.684Z" style="fill:rgb(197,255,127);fill-rule:nonzero;"/>
        </g>
        <g transform="matrix(58,0,0,58,779.897,321.159)">
            <path d="M0.451,-0.76L0.633,-0.76L0.478,-0.084L0.562,-0.084L0.542,-0L0.36,-0L0.368,-0.033C0.349,-0.02 0.33,-0.01 0.309,-0.002C0.289,0.006 0.267,0.01 0.244,0.01C0.215,0.01 0.188,0.004 0.163,-0.007C0.138,-0.018 0.116,-0.033 0.097,-0.053C0.078,-0.072 0.063,-0.095 0.053,-0.122C0.042,-0.148 0.037,-0.177 0.037,-0.208C0.037,-0.253 0.045,-0.294 0.061,-0.333C0.076,-0.371 0.098,-0.404 0.126,-0.432C0.153,-0.46 0.185,-0.482 0.222,-0.497C0.259,-0.513 0.298,-0.521 0.339,-0.521C0.365,-0.521 0.39,-0.517 0.412,-0.51C0.435,-0.502 0.454,-0.492 0.471,-0.479L0.516,-0.676L0.431,-0.676L0.451,-0.76ZM0.267,-0.075C0.287,-0.075 0.308,-0.08 0.33,-0.089C0.352,-0.098 0.372,-0.111 0.39,-0.129L0.451,-0.391C0.439,-0.405 0.423,-0.416 0.404,-0.424C0.385,-0.431 0.361,-0.435 0.333,-0.435C0.309,-0.435 0.285,-0.43 0.261,-0.42C0.238,-0.409 0.217,-0.395 0.199,-0.376C0.181,-0.357 0.166,-0.334 0.155,-0.307C0.143,-0.28 0.138,-0.25 0.138,-0.217C0.138,-0.195 0.141,-0.175 0.147,-0.158C0.154,-0.141 0.162,-0.126 0.174,-0.114C0.185,-0.101 0.199,-0.092 0.215,-0.085C0.23,-0.079 0.248,-0.075 0.267,-0.075Z" style="fill:rgb(197,255,127);fill-rule:nonzero;"/>
        </g>
        <g transform="matrix(58,0,0,58,816.289,321.159)">
            <path d="M0.155,-0.236C0.155,-0.231 0.155,-0.227 0.154,-0.224C0.154,-0.221 0.154,-0.218 0.154,-0.215C0.154,-0.194 0.157,-0.175 0.164,-0.158C0.17,-0.14 0.18,-0.125 0.192,-0.112C0.204,-0.099 0.218,-0.089 0.234,-0.082C0.251,-0.074 0.269,-0.071 0.288,-0.071C0.314,-0.071 0.339,-0.076 0.363,-0.087C0.386,-0.097 0.406,-0.113 0.422,-0.133L0.494,-0.08C0.483,-0.065 0.47,-0.052 0.455,-0.041C0.439,-0.029 0.422,-0.019 0.404,-0.01C0.385,-0.002 0.365,0.004 0.344,0.009C0.323,0.013 0.302,0.015 0.28,0.015C0.249,0.015 0.22,0.01 0.193,-0C0.165,-0.011 0.142,-0.026 0.121,-0.046C0.101,-0.066 0.085,-0.09 0.073,-0.119C0.062,-0.148 0.056,-0.18 0.056,-0.217C0.056,-0.259 0.064,-0.298 0.078,-0.335C0.093,-0.372 0.114,-0.404 0.14,-0.432C0.166,-0.459 0.197,-0.481 0.233,-0.497C0.269,-0.513 0.307,-0.521 0.349,-0.521C0.381,-0.521 0.41,-0.516 0.435,-0.505C0.461,-0.494 0.482,-0.479 0.5,-0.461C0.517,-0.444 0.53,-0.423 0.54,-0.399C0.549,-0.376 0.553,-0.352 0.553,-0.327C0.553,-0.311 0.552,-0.295 0.551,-0.279C0.549,-0.264 0.547,-0.249 0.544,-0.236L0.155,-0.236ZM0.336,-0.438C0.316,-0.438 0.298,-0.435 0.281,-0.429C0.264,-0.423 0.248,-0.414 0.234,-0.403C0.22,-0.392 0.208,-0.379 0.197,-0.364C0.187,-0.349 0.178,-0.333 0.171,-0.315L0.459,-0.315C0.459,-0.335 0.457,-0.353 0.451,-0.368C0.445,-0.384 0.437,-0.397 0.426,-0.407C0.415,-0.417 0.402,-0.425 0.387,-0.43C0.371,-0.435 0.354,-0.438 0.336,-0.438Z" style="fill:rgb(197,255,127);fill-rule:nonzero;"/>
        </g>
    </g>
</svg>
